HIERARCHY
ROOT Hips
{
	OFFSET 0.000000 83.214638 0.000000
	CHANNELS 6 Xposition Yposition Zposition Xrotation Yrotation Zrotation
	JOINT Pelvis
	{
		OFFSET 0.000000 0.000000 0.000000
		CHANNELS 3 Xrotation Yrotation Zrotation
		JOINT LeftUpLeg
		{
			OFFSET 8.479700 -4.795502 -0.379100
			CHANNELS 3 Xrotation Yrotation Zrotation
			JOINT LeftLeg
			{
				OFFSET 0.024144 -32.555107 0.112900
				CHANNELS 3 Xrotation Yrotation Zrotation
				JOINT LeftFoot
				{
					OFFSET -0.024144 -32.638630 -3.012600
					CHANNELS 3 Xrotation Yrotation Zrotation
					JOINT LeftToeBase
					{
						OFFSET 0.970200 -13.225400 11.864200
						CHANNELS 3 Xrotation Yrotation Zrotation
						End Site
						{
							OFFSET 0.000000 12.319262 0.000000
						}
					}
					JOINT LFootTongue
					{
						OFFSET 1.142400 -1.059800 6.665200
						CHANNELS 3 Xrotation Yrotation Zrotation
						End Site
						{
							OFFSET 0.000000 12.319262 0.000000
						}
					}
				}
				JOINT LeftPantLeg
				{
					OFFSET 0.918482 -16.533964 -2.284700
					CHANNELS 3 Xrotation Yrotation Zrotation
					End Site
					{
						OFFSET 0.350399 24.744368 0.000000
					}
				}
			}
		}
		JOINT RightUpLeg
		{
			OFFSET -8.479700 -4.795502 -0.379100
			CHANNELS 3 Xrotation Yrotation Zrotation
			JOINT RightLeg
			{
				OFFSET -0.023144 -32.555092 0.112900
				CHANNELS 3 Xrotation Yrotation Zrotation
				JOINT RightFoot
				{
					OFFSET 0.023144 -32.638641 -3.012700
					CHANNELS 3 Xrotation Yrotation Zrotation
					JOINT RightToeBase
					{
						OFFSET -0.970200 -13.225400 11.864200
						CHANNELS 3 Xrotation Yrotation Zrotation
						End Site
						{
							OFFSET 0.000000 12.319244 0.000000
						}
					}
					JOINT RFootTongue
					{
						OFFSET -1.142200 -1.059800 6.665200
						CHANNELS 3 Xrotation Yrotation Zrotation
						End Site
						{
							OFFSET 0.000000 12.319243 0.000000
						}
					}
				}
				JOINT RightPantLeg
				{
					OFFSET -0.919482 -16.533978 -2.284800
					CHANNELS 3 Xrotation Yrotation Zrotation
					End Site
					{
						OFFSET -0.350400 24.744419 0.000000
					}
				}
			}
		}
	}
	JOINT Spine
	{
		OFFSET 0.000000 7.722000 1.166200
		CHANNELS 3 Xrotation Yrotation Zrotation
		JOINT Spine1
		{
			OFFSET 0.000000 12.024101 0.248800
			CHANNELS 3 Xrotation Yrotation Zrotation
			JOINT Spine2
			{
				OFFSET 0.000000 11.502998 -0.491200
				CHANNELS 3 Xrotation Yrotation Zrotation
				JOINT Neck
				{
					OFFSET 0.000000 18.430702 -3.123100
					CHANNELS 3 Xrotation Yrotation Zrotation
					JOINT Head
					{
						OFFSET 0.000000 9.051102 1.034000
						CHANNELS 3 Xrotation Yrotation Zrotation
						JOINT HairB
						{
							OFFSET 0.208400 24.786102 24.822300
							CHANNELS 3 Xrotation Yrotation Zrotation
							End Site
							{
								OFFSET 0.000000 32.263779 0.000000
							}
						}
						JOINT HairA
						{
							OFFSET -7.081100 24.428299 23.196600
							CHANNELS 3 Xrotation Yrotation Zrotation
							End Site
							{
								OFFSET 0.000000 32.263779 0.000000
							}
						}
						JOINT Hat
						{
							OFFSET 16.728800 15.048294 -15.439601
							CHANNELS 3 Xrotation Yrotation Zrotation
							End Site
							{
								OFFSET 0.000000 32.263779 0.000000
							}
						}
					}
				}
				JOINT LeftShoulder
				{
					OFFSET 6.197800 13.665199 -4.064700
					CHANNELS 3 Xrotation Yrotation Zrotation
					JOINT LeftArm
					{
						OFFSET 7.778100 -0.187103 -1.709300
						CHANNELS 3 Xrotation Yrotation Zrotation
						JOINT LeftForeArm
						{
							OFFSET 22.049376 0.000000 0.000000
							CHANNELS 3 Xrotation Yrotation Zrotation
							JOINT LeftHand
							{
								OFFSET 23.009392 0.000000 0.000000
								CHANNELS 3 Xrotation Yrotation Zrotation
								JOINT LeftHandThumb1
								{
									OFFSET 3.507191 -2.063065 3.133727
									CHANNELS 3 Xrotation Yrotation Zrotation
									JOINT LeftHandThumb2
									{
										OFFSET 3.101337 -1.790558 1.790558
										CHANNELS 3 Xrotation Yrotation Zrotation
										JOINT LeftHandThumb3
										{
											OFFSET 3.058640 -1.765907 1.765906
											CHANNELS 3 Xrotation Yrotation Zrotation
											End Site
											{
												OFFSET -0.415260 3.926476 -0.049563
											}
										}
									}
								}
								JOINT LeftHandIndex1
								{
									OFFSET 11.334419 -0.901459 3.706815
									CHANNELS 3 Xrotation Yrotation Zrotation
									JOINT LeftHandIndex2
									{
										OFFSET 3.283112 0.000000 0.000000
										CHANNELS 3 Xrotation Yrotation Zrotation
										JOINT LeftHandIndex3
										{
											OFFSET 3.323853 0.000000 0.000000
											CHANNELS 3 Xrotation Yrotation Zrotation
											End Site
											{
												OFFSET -1.135597 3.097809 0.402452
											}
										}
									}
								}
								JOINT LeftHandMiddle1
								{
									OFFSET 11.335861 0.000000 0.000000
									CHANNELS 3 Xrotation Yrotation Zrotation
									JOINT LeftHandMiddle2
									{
										OFFSET 3.410492 0.000000 0.000000
										CHANNELS 3 Xrotation Yrotation Zrotation
										JOINT LeftHandMiddle3
										{
											OFFSET 3.312172 0.000000 0.000000
											CHANNELS 3 Xrotation Yrotation Zrotation
											End Site
											{
												OFFSET -1.150200 3.080154 0.400270
											}
										}
									}
								}
								JOINT LeftHandRing1
								{
									OFFSET 11.514786 -0.013176 -3.003090
									CHANNELS 3 Xrotation Yrotation Zrotation
									JOINT LeftHandRing2
									{
										OFFSET 3.053307 0.000000 0.000000
										CHANNELS 3 Xrotation Yrotation Zrotation
										JOINT LeftHandRing3
										{
											OFFSET 3.295807 0.000000 0.000000
											CHANNELS 3 Xrotation Yrotation Zrotation
											End Site
											{
												OFFSET -1.281006 3.013344 0.375733
											}
										}
									}
								}
								JOINT LeftHandPinky1
								{
									OFFSET 10.518692 -0.960396 -5.730441
									CHANNELS 3 Xrotation Yrotation Zrotation
									JOINT LeftHandPinky2
									{
										OFFSET 2.861649 0.000000 0.000000
										CHANNELS 3 Xrotation Yrotation Zrotation
										JOINT LeftHandPinky3
										{
											OFFSET 2.863380 0.000000 0.000000
											CHANNELS 3 Xrotation Yrotation Zrotation
											End Site
											{
												OFFSET -0.843597 2.711159 0.369971
											}
										}
									}
								}
							}
							JOINT LSleeve
							{
								OFFSET 6.676277 -0.344902 -1.011730
								CHANNELS 3 Xrotation Yrotation Zrotation
								End Site
								{
									OFFSET 0.000000 14.885353 0.000000
								}
							}
						}
					}
				}
				JOINT RightShoulder
				{
					OFFSET -6.197800 13.665199 -4.064700
					CHANNELS 3 Xrotation Yrotation Zrotation
					JOINT RightArm
					{
						OFFSET -7.778100 -0.187103 -1.709300
						CHANNELS 3 Xrotation Yrotation Zrotation
						JOINT RightForeArm
						{
							OFFSET -22.049376 0.000000 0.000000
							CHANNELS 3 Xrotation Yrotation Zrotation
							JOINT RightHand
							{
								OFFSET -23.009392 0.000000 0.000000
								CHANNELS 3 Xrotation Yrotation Zrotation
								JOINT RightHandThumb1
								{
									OFFSET -3.507191 -2.063065 3.133727
									CHANNELS 3 Xrotation Yrotation Zrotation
									JOINT RightHandThumb2
									{
										OFFSET -3.101337 -1.790558 1.790558
										CHANNELS 3 Xrotation Yrotation Zrotation
										JOINT RightHandThumb3
										{
											OFFSET -3.058640 -1.765907 1.765906
											CHANNELS 3 Xrotation Yrotation Zrotation
											End Site
											{
												OFFSET 0.415260 3.926476 -0.049563
											}
										}
									}
								}
								JOINT RightHandIndex1
								{
									OFFSET -11.334419 -0.901459 3.706815
									CHANNELS 3 Xrotation Yrotation Zrotation
									JOINT RightHandIndex2
									{
										OFFSET -3.283112 0.000000 0.000000
										CHANNELS 3 Xrotation Yrotation Zrotation
										JOINT RightHandIndex3
										{
											OFFSET -3.323853 0.000000 0.000000
											CHANNELS 3 Xrotation Yrotation Zrotation
											End Site
											{
												OFFSET 1.135597 3.097809 0.402452
											}
										}
									}
								}
								JOINT RightHandMiddle1
								{
									OFFSET -11.335861 0.000000 0.000000
									CHANNELS 3 Xrotation Yrotation Zrotation
									JOINT RightHandMiddle2
									{
										OFFSET -3.410492 0.000000 0.000000
										CHANNELS 3 Xrotation Yrotation Zrotation
										JOINT RightHandMiddle3
										{
											OFFSET -3.312172 0.000000 0.000000
											CHANNELS 3 Xrotation Yrotation Zrotation
											End Site
											{
												OFFSET 1.150200 3.080154 0.400270
											}
										}
									}
								}
								JOINT RightHandRing1
								{
									OFFSET -11.514786 -0.013176 -3.003090
									CHANNELS 3 Xrotation Yrotation Zrotation
									JOINT RightHandRing2
									{
										OFFSET -3.053307 0.000000 0.000000
										CHANNELS 3 Xrotation Yrotation Zrotation
										JOINT RightHandRing3
										{
											OFFSET -3.295807 0.000000 0.000000
											CHANNELS 3 Xrotation Yrotation Zrotation
											End Site
											{
												OFFSET 1.281006 3.013344 0.375733
											}
										}
									}
								}
								JOINT RightHandPinky1
								{
									OFFSET -10.518692 -0.960396 -5.730441
									CHANNELS 3 Xrotation Yrotation Zrotation
									JOINT RightHandPinky2
									{
										OFFSET -2.861649 0.000000 0.000000
										CHANNELS 3 Xrotation Yrotation Zrotation
										JOINT RightHandPinky3
										{
											OFFSET -2.863380 0.000000 0.000000
											CHANNELS 3 Xrotation Yrotation Zrotation
											End Site
											{
												OFFSET 0.843597 2.711159 0.369971
											}
										}
									}
								}
							}
							JOINT RSleeve
							{
								OFFSET -6.676277 -0.344902 -1.011730
								CHANNELS 3 Xrotation Yrotation Zrotation
								End Site
								{
									OFFSET 0.000000 14.885353 0.000000
								}
							}
						}
					}
				}
				JOINT Backpack
				{
					OFFSET 0.000000 -2.471497 36.677502
					CHANNELS 3 Xrotation Yrotation Zrotation
					End Site
					{
						OFFSET 0.000000 20.427315 0.000000
					}
				}
				JOINT Hood
				{
					OFFSET 0.000000 18.754097 -10.431000
					CHANNELS 3 Xrotation Yrotation Zrotation
					JOINT Hood1
					{
						OFFSET 0.000000 -5.011002 -7.685901
						CHANNELS 3 Xrotation Yrotation Zrotation
						End Site
						{
							OFFSET 0.000000 9.175140 0.000000
						}
					}
				}
				JOINT LHoodieString
				{
					OFFSET 5.250500 16.397697 3.089900
					CHANNELS 3 Xrotation Yrotation Zrotation
					JOINT LHoodieString1
					{
						OFFSET 0.257700 -6.364304 3.694600
						CHANNELS 3 Xrotation Yrotation Zrotation
						JOINT LHoodieString2
						{
							OFFSET 0.000000 -9.643799 2.679100
							CHANNELS 3 Xrotation Yrotation Zrotation
							End Site
							{
								OFFSET 0.000000 10.009018 0.000000
							}
						}
					}
				}
				JOINT RHoodieString
				{
					OFFSET -5.250500 16.397697 3.089900
					CHANNELS 3 Xrotation Yrotation Zrotation
					JOINT RHoodieString1
					{
						OFFSET -0.257700 -6.364304 3.694600
						CHANNELS 3 Xrotation Yrotation Zrotation
						JOINT RHoodieString2
						{
							OFFSET 0.000000 -9.643799 2.679100
							CHANNELS 3 Xrotation Yrotation Zrotation
							End Site
							{
								OFFSET 0.000000 10.009018 0.000000
							}
						}
					}
				}
			}
			JOINT LBackpack_Strap
			{
				OFFSET 15.223200 -7.719803 -6.610900
				CHANNELS 3 Xrotation Yrotation Zrotation
				End Site
				{
					OFFSET 0.000000 16.040596 0.000000
				}
			}
			JOINT RBackpack_Strap
			{
				OFFSET -15.223000 -7.719803 -6.610900
				CHANNELS 3 Xrotation Yrotation Zrotation
				End Site
				{
					OFFSET 0.000000 16.040596 0.000000
				}
			}
		}
	}
	JOINT BoyFacialAnim_Joint
	{
		OFFSET 1.000000 -82.208099 -1.550900
		CHANNELS 3 Xrotation Yrotation Zrotation
		End Site
		{
			OFFSET 0.000000 30.012791 0.000000
		}
	}
}
MOTION
Frames: 4
Frame Time: 0.016667
-0.000010 81.189789 -0.000005 -9.026486 -5.362685 8.328712 -0.000000 -0.000000 0.000001 9.484302 15.119006 -13.476766 7.845865 -0.044720 -0.091180 -6.658398 -0.480498 4.708159 -0.000000 -0.000001 -0.000000 -0.000000 -0.000001 0.000000 -0.000001 -0.000001 -0.000000 -9.564173 -12.919340 -25.028019 26.323838 0.439898 0.295413 -8.397170 -9.706816 8.777920 -0.000000 -0.000002 -0.000000 -0.000000 -0.000002 -0.000000 0.000001 -0.000003 -0.000000 2.405972 1.302803 -5.025918 4.666352 1.729999 -2.802044 4.685184 1.690013 -2.793393 -2.808737 -0.350888 -5.041334 -1.723852 -2.292228 2.025737 -0.000000 -0.000000 -0.000000 -0.000000 -0.000000 -0.000000 -0.000000 -0.000000 -0.000000 4.034696 -13.464702 -7.420042 5.772113 3.721068 -60.112912 11.491849 -25.077055 -5.820583 -8.196598 -3.557936 7.163525 -21.992157 17.035882 -2.008541 5.703912 22.366216 5.520039 0.000000 -0.000001 0.000001 -2.899130 12.800596 -7.221985 2.739053 6.814381 -29.837640 -0.000003 0.000000 -0.000002 -8.983048 7.076820 -9.539581 4.275438 7.169711 -39.702356 0.000001 0.000000 0.000000 -16.256854 8.648393 -21.626588 4.109017 6.928489 -36.756967 -0.000001 -0.000001 -0.000004 -21.808791 10.570021 -31.866917 1.910798 2.504683 -24.353775 -0.000002 0.000001 -0.000003 -0.000002 -0.000001 0.000001 3.919268 12.466707 7.900377 -3.939678 -11.622642 68.565066 15.857367 12.603585 4.140676 -8.305444 0.914263 -6.259041 -21.991987 -17.035475 2.009240 5.703641 -22.367054 -5.520862 -0.000000 0.000000 -0.000001 -2.899132 -12.801059 7.221841 2.738672 -6.813226 29.837808 -0.000001 -0.000000 0.000002 -8.983067 -7.076423 9.538924 4.275414 -7.169939 39.704040 -0.000000 -0.000000 0.000003 -16.256631 -8.649638 21.626355 4.109534 -6.928335 36.756322 -0.000002 -0.000001 0.000004 -21.809409 -10.568790 31.865964 1.910740 -2.505958 24.353711 0.000001 -0.000000 0.000002 0.000000 -0.000000 -0.000000 -0.000000 -0.000000 0.000000 -0.000000 -0.000000 0.000000 -0.000000 -0.000000 0.000000 -0.000000 -0.000000 0.000000 -0.000000 -0.000000 0.000000 -0.000000 0.000000 0.000000 -0.000000 -0.000000 0.000000 -0.000000 -0.000000 0.000000 -0.000000 0.000000 0.000000 -0.000000 0.000000 -0.000000 -0.000000 0.000000 -0.000000 -0.000000 -0.000000 0.000001 
-0.044083 81.245903 0.006491 -9.114046 -5.304458 8.262330 0.000000 -0.000001 0.000001 8.747824 15.245751 -13.182358 9.176516 -0.108831 -0.119878 -6.580601 -0.385775 4.900950 -0.000000 -0.000001 0.000000 -0.000000 -0.000001 -0.000000 -0.000000 -0.000000 -0.000000 -9.462136 -12.897431 -24.831721 26.331547 0.309191 0.283397 -8.321737 -9.728571 8.384875 0.000000 0.000002 -0.000000 0.000000 0.000002 -0.000000 0.000000 0.000001 0.000000 2.528204 1.275536 -5.026829 4.913430 1.686253 -2.761731 4.931893 1.643645 -2.752655 -3.587673 -0.245977 -5.289813 -1.743662 -2.215875 1.752009 -0.000000 0.000000 0.000000 -0.000000 0.000000 0.000000 -0.000000 0.000000 0.000000 3.979139 -13.925284 -7.123387 8.808446 0.870770 -59.276166 9.104187 -28.163817 -6.388886 -8.185926 -3.893778 7.156306 -21.796588 17.067012 -2.254223 5.203271 22.372773 5.475974 -0.000000 0.000003 0.000002 -2.942354 12.989534 -7.794503 2.737333 6.823873 -30.157502 -0.000001 -0.000001 -0.000000 -8.964755 7.351976 -10.247522 4.392808 7.266432 -40.753936 0.000002 0.000001 -0.000001 -16.096191 8.801866 -21.946414 4.244150 7.047122 -37.953821 0.000000 -0.000000 -0.000000 -21.489848 10.821489 -32.647232 2.037498 2.734381 -25.918447 0.000001 0.000001 -0.000002 -0.000002 -0.000000 0.000001 3.867134 12.882172 7.705445 -3.144266 -10.625764 68.163089 17.220661 14.146992 3.950152 -8.237060 -0.271342 -5.322035 -21.973244 -16.867422 2.049145 5.973389 -23.678896 -5.152970 0.000000 0.000003 0.000001 -2.802278 -12.889485 8.069484 2.700030 -6.811037 29.794658 -0.000001 -0.000001 0.000003 -9.075027 -7.233156 10.442663 4.430273 -7.269920 40.816801 -0.000000 -0.000000 0.000003 -16.277751 -8.826638 22.153654 4.270805 -7.005741 38.208027 -0.000000 -0.000001 0.000000 -21.881023 -10.795307 31.748403 2.048325 -2.646576 25.644155 -0.000000 -0.000000 0.000005 -0.000003 0.000000 -0.000001 0.000000 0.000000 0.000000 0.000000 0.000000 0.000000 0.000000 0.000000 0.000000 0.000000 0.000000 0.000000 0.000000 0.000000 0.000000 0.000000 -0.000000 -0.000000 0.000000 0.000000 0.000000 0.000000 0.000000 0.000000 0.000000 -0.000000 -0.000000 -0.000000 0.000000 -0.000000 -0.000000 0.000000 -0.000000 0.000000 -0.000001 0.000001 
-0.113886 81.383698 0.051965 -9.296205 -5.170989 8.093623 0.000000 0.000000 0.000000 7.351794 15.453866 -12.582263 11.646907 -0.142770 -0.152923 -6.160794 -0.233446 5.181596 0.000000 0.000001 0.000000 0.000000 0.000001 0.000000 -0.000001 0.000000 0.000000 -9.247580 -12.897419 -24.658817 26.321133 0.310209 0.283372 -7.359380 -9.832670 8.743910 -0.000000 -0.000004 0.000000 -0.000000 -0.000004 0.000000 -0.000000 -0.000002 -0.000000 2.766498 1.226391 -5.029854 5.395335 1.608660 -2.665655 5.413139 1.560643 -2.655693 -4.963399 -0.057444 -5.756623 -1.813865 -2.079885 1.239585 0.000000 0.000000 0.000000 0.000000 0.000000 0.000000 0.000000 0.000000 0.000000 3.884198 -14.711365 -6.633769 14.149913 -3.920241 -57.208114 5.105496 -33.594989 -7.629398 -8.168619 -4.251239 7.302866 -21.332279 17.091710 -2.837975 3.958074 22.289151 5.402760 -0.000001 -0.000001 -0.000000 -3.076567 13.365436 -9.160879 2.825258 6.942465 -31.688820 -0.000005 -0.000000 -0.000002 -8.994090 7.873331 -11.761442 4.679768 7.511356 -43.257497 0.000001 0.000001 0.000005 -15.795514 9.131240 -22.750947 4.548027 7.323666 -40.771527 -0.000002 0.000002 -0.000000 -20.863656 11.238493 -34.243655 2.364632 3.249456 -29.568282 0.000000 0.000001 -0.000002 0.000003 0.000001 0.000001 3.778978 13.585869 7.369178 -1.561298 -8.690971 67.291119 19.661256 17.108686 3.253672 -8.102057 -2.099965 -3.619100 -21.920087 -16.431919 2.146730 5.822842 -25.325638 -4.915311 0.000001 -0.000002 0.000000 -2.709174 -13.063777 9.415204 2.637327 -6.812462 29.750795 -0.000003 0.000000 0.000005 -9.249265 -7.574066 11.793331 4.704357 -7.483154 42.958721 0.000001 -0.000000 -0.000000 -16.291692 -9.133682 22.933014 4.484990 -7.133888 40.801720 -0.000000 0.000000 0.000006 -22.155942 -11.243206 31.536718 2.308638 -2.917801 28.251684 -0.000000 -0.000001 -0.000002 -0.000002 0.000000 -0.000001 -0.000000 -0.000000 -0.000000 -0.000000 -0.000000 -0.000000 -0.000000 -0.000000 -0.000000 -0.000000 -0.000000 -0.000000 -0.000000 -0.000000 -0.000000 -0.000000 0.000000 -0.000000 -0.000000 -0.000000 -0.000000 -0.000000 -0.000000 -0.000000 -0.000000 0.000000 -0.000000 -0.000000 0.000000 -0.000000 -0.000000 0.000000 -0.000000 0.000000 0.000000 0.000000 
-0.157101 81.587479 0.205096 -9.517094 -4.987583 7.831860 0.000000 0.000000 -0.000000 6.864028 15.446273 -12.126553 12.597732 -0.160536 -0.165008 -5.317388 -0.124864 5.455070 0.000000 0.000000 0.000000 0.000000 0.000000 0.000000 0.000000 -0.000001 0.000000 -8.860365 -13.167863 -24.463805 26.002445 0.311299 0.281888 -6.032802 -9.775095 9.196693 -0.000000 0.000002 0.000000 -0.000000 0.000002 0.000000 -0.000000 0.000002 -0.000000 3.025305 1.180216 -5.041437 5.918542 1.537689 -2.526865 5.935775 1.483429 -2.515835 -6.201184 0.091968 -6.231190 -2.418391 -1.955305 0.684864 -0.000000 -0.000000 0.000000 -0.000000 -0.000000 0.000000 -0.000000 -0.000000 0.000000 3.794423 -15.397651 -6.279943 19.088017 -7.935479 -54.787949 2.088974 -38.551070 -8.015106 -8.160005 -4.316230 7.783504 -20.667469 17.055892 -3.671375 2.093583 21.990045 5.341710 -0.000000 -0.000001 -0.000001 -3.328978 13.761965 -11.122460 3.108027 7.224232 -34.978304 -0.000005 -0.000001 -0.000006 -9.153372 8.386873 -13.672313 5.098727 7.862110 -46.821661 -0.000002 -0.000001 -0.000000 -15.503449 9.530043 -23.916879 4.949133 7.703903 -44.692339 -0.000002 -0.000001 -0.000000 -20.170256 11.554924 -36.157331 2.865197 3.935195 -34.609033 -0.000002 -0.000001 -0.000000 0.000002 -0.000001 0.000002 3.699330 14.186505 7.099045 0.249531 -6.540136 66.152062 22.073775 20.344050 2.093869 -7.944385 -3.252924 -1.946570 -21.837800 -15.758126 2.290945 4.826230 -25.921265 -5.103640 0.000000 0.000004 -0.000001 -2.750365 -13.242987 10.381497 2.660933 -6.889643 30.409549 0.000001 0.000002 0.000002 -9.463702 -7.971125 12.505461 4.962003 -7.753088 45.326327 0.000001 -0.000001 -0.000000 -16.257534 -9.400715 23.322036 4.532898 -7.232901 43.244175 -0.000001 -0.000001 0.000002 -22.702101 -11.736738 31.293840 2.545876 -3.202613 31.286091 -0.000000 -0.000001 0.000005 -0.000001 -0.000000 0.000001 -0.000000 -0.000000 -0.000000 -0.000000 -0.000000 -0.000000 -0.000000 -0.000000 -0.000000 -0.000000 -0.000000 -0.000000 -0.000000 -0.000000 -0.000000 -0.000001 0.000000 -0.000000 -0.000000 -0.000000 -0.000000 -0.000000 -0.000000 -0.000000 -0.000001 0.000000 -0.000000 -0.000000 0.000000 0.000000 -0.000000 0.000000 0.000000 0.000000 0.000000 -0.000000 
